<svg width="24" height="24" viewBox="0 0 24 24" fill="none" xmlns="http://www.w3.org/2000/svg">
<path fill-rule="evenodd" clip-rule="evenodd" d="M12.83 2.44002L17.21 9.00002H22C22.55 9.00002 23 9.45002 23 10L22.97 10.27L20.43 19.54C20.19 20.38 19.42 21 18.5 21H5.5C4.58 21 3.81 20.38 3.58 19.54L1.04 10.27C1.01 10.18 1 10.09 1 10C1 9.45002 1.45 9.00002 2 9.00002H6.79L11.17 2.45002C11.36 2.16002 11.68 2.02002 12 2.02002C12.32 2.02002 12.64 2.16002 12.83 2.44002ZM12 4.60002L9 9.00002H15L12 4.60002Z" fill="black"/>
</svg>
