<svg width="24" height="24" viewBox="0 0 24 24" fill="none" xmlns="http://www.w3.org/2000/svg">
<path d="M22 5H2.5C2.36739 5 2.24021 5.05268 2.14645 5.14645C2.05268 5.24021 2 5.36739 2 5.5V18C2 18.1326 2.05268 18.2598 2.14645 18.3536C2.24021 18.4473 2.36739 18.5 2.5 18.5H22C22.1326 18.5 22.2598 18.4473 22.3536 18.3536C22.4473 18.2598 22.5 18.1326 22.5 18V5.5C22.5 5.36739 22.4473 5.24021 22.3536 5.14645C22.2598 5.05268 22.1326 5 22 5ZM5.5 17.5H3V6H5.5V17.5ZM18 17.5H6.5V6H18V17.5ZM21.5 17.5H19V6H21.5V17.5Z" fill="#311C1C"/>
<path d="M7.16006 11.965L9.22006 13.235L8.80506 14.3C8.76954 14.3902 8.76102 14.4889 8.78055 14.5839C8.80008 14.6788 8.84681 14.7661 8.91506 14.835C8.98341 14.9041 9.07041 14.9518 9.16543 14.9722C9.26044 14.9926 9.35935 14.9849 9.45006 14.95L11.0901 14.315H11.7501V15.665C11.7501 15.7976 11.8027 15.9248 11.8965 16.0186C11.9903 16.1123 12.1174 16.165 12.2501 16.165C12.3827 16.165 12.5098 16.1123 12.6036 16.0186C12.6974 15.9248 12.7501 15.7976 12.7501 15.665V14.315H13.4101L15.0501 14.95C15.1071 14.9736 15.1683 14.9855 15.2301 14.985C15.2962 14.9847 15.3617 14.9713 15.4226 14.9456C15.4835 14.9198 15.5387 14.8823 15.5851 14.835C15.6533 14.7661 15.7 14.6788 15.7196 14.5839C15.7391 14.4889 15.7306 14.3902 15.6951 14.3L15.2801 13.235L17.3401 11.965C17.4271 11.9118 17.4958 11.8332 17.5369 11.7397C17.578 11.6463 17.5895 11.5426 17.5699 11.4424C17.5503 11.3423 17.5006 11.2505 17.4273 11.1795C17.354 11.1084 17.2608 11.0615 17.1601 11.045L15.6601 10.79L15.3751 9.47001C15.3543 9.37867 15.3082 9.29501 15.2422 9.22857C15.1762 9.16212 15.0928 9.11557 15.0016 9.0942C14.9104 9.07283 14.815 9.07751 14.7263 9.10771C14.6377 9.13791 14.5593 9.19241 14.5001 9.26501L13.5001 10.5V10.455L14.1701 7.72501C14.1944 7.62689 14.1885 7.52368 14.153 7.429C14.1176 7.33432 14.0542 7.25262 13.9714 7.19467C13.8885 7.13673 13.79 7.10527 13.6889 7.10443C13.5878 7.1036 13.4889 7.13344 13.4051 7.19001L12.2501 7.95001L11.1201 7.19501C11.0363 7.13844 10.9373 7.1086 10.8362 7.10943C10.7351 7.11027 10.6366 7.14173 10.5537 7.19967C10.4709 7.25762 10.4075 7.33932 10.3721 7.434C10.3366 7.52868 10.3307 7.63189 10.3551 7.73001L11.0251 10.46L11.0001 10.5L10.0001 9.26001C9.94117 9.18593 9.86247 9.13009 9.77311 9.09897C9.68374 9.06784 9.58738 9.06272 9.49522 9.08419C9.40306 9.10566 9.31888 9.15284 9.25247 9.22025C9.18606 9.28766 9.14015 9.37254 9.12006 9.46501L8.83506 10.785L7.33506 11.04C7.23435 11.0565 7.1411 11.1034 7.06783 11.1745C6.99456 11.2455 6.94479 11.3373 6.92519 11.4374C6.9056 11.5376 6.91712 11.6413 6.95821 11.7347C6.9993 11.8282 7.06799 11.9068 7.15506 11.96L7.16006 11.965ZM9.35506 11.715C9.45322 11.6984 9.54421 11.653 9.61636 11.5844C9.68851 11.5158 9.73855 11.4272 9.76006 11.33L9.89006 10.71L10.8051 11.85C10.8609 11.9197 10.9345 11.9732 11.018 12.0048C11.1015 12.0365 11.192 12.0452 11.2801 12.03C11.3693 12.0147 11.4527 11.9755 11.5214 11.9165C11.5901 11.8575 11.6415 11.7809 11.6701 11.695L12.0201 10.635C12.0475 10.5454 12.0475 10.4496 12.0201 10.36L11.6251 8.74501L11.9601 8.97001C12.0427 9.0259 12.1403 9.05576 12.2401 9.05576C12.3399 9.05576 12.4374 9.0259 12.5201 8.97001L12.8551 8.74501L12.4601 10.36C12.4326 10.4496 12.4326 10.5454 12.4601 10.635L12.8101 11.695C12.8386 11.7809 12.89 11.8575 12.9587 11.9165C13.0274 11.9755 13.1108 12.0147 13.2001 12.03C13.2881 12.0452 13.3786 12.0365 13.4621 12.0048C13.5457 11.9732 13.6192 11.9197 13.6751 11.85L14.5901 10.71L14.7201 11.33C14.7416 11.4272 14.7916 11.5158 14.8638 11.5844C14.9359 11.653 15.0269 11.6984 15.1251 11.715L15.6701 11.81L14.4001 12.605C14.3007 12.6661 14.2258 12.76 14.1883 12.8705C14.1509 12.981 14.1533 13.1011 14.1951 13.21L14.3501 13.61L13.6851 13.35C13.6264 13.326 13.5635 13.3141 13.5001 13.315H12.7501V12.78C12.7501 12.6474 12.6974 12.5202 12.6036 12.4265C12.5098 12.3327 12.3827 12.28 12.2501 12.28C12.1174 12.28 11.9903 12.3327 11.8965 12.4265C11.8027 12.5202 11.7501 12.6474 11.7501 12.78V13.315H11.0001C10.9367 13.3141 10.8737 13.326 10.8151 13.35L10.1501 13.61L10.3051 13.21C10.3468 13.1011 10.3492 12.981 10.3118 12.8705C10.2743 12.76 10.1994 12.6661 10.1001 12.605L8.81006 11.81L9.35506 11.715Z" fill="#311C1C"/>
</svg>
