<svg width="24" height="24" viewBox="0 0 24 24" fill="none" xmlns="http://www.w3.org/2000/svg">
<path fill-rule="evenodd" clip-rule="evenodd" d="M2 12C2 6.48 6.48 2 12 2C17.52 2 22 6.48 22 12C22 17.52 17.52 22 12 22C6.48 22 2 17.52 2 12ZM4 12C4 16.42 7.58 20 12 20C16.42 20 20 16.42 20 12C20 7.58 16.42 4 12 4C7.58 4 4 7.58 4 12Z" fill="black"/>
<path d="M11.984 9.836C12.548 9.836 12.968 9.452 12.968 8.924C12.968 8.396 12.56 8 11.984 8C11.408 8 11 8.384 11 8.912C11 9.452 11.408 9.836 11.984 9.836ZM12.776 16.604V11.216H11.18V16.604H12.776Z" fill="black"/>
</svg>
