<svg width="24" height="24" viewBox="0 0 24 24" fill="none" xmlns="http://www.w3.org/2000/svg">
<path d="M11.9998 1C7.74281 1 4.2998 4.443 4.2998 8.7C4.2998 14.475 11.9998 23 11.9998 23C11.9998 23 19.6998 14.475 19.6998 8.7C19.6998 4.443 16.2568 1 11.9998 1Z" fill="black"/>
<path fill-rule="evenodd" clip-rule="evenodd" d="M7.59961 5.40002V6.28002H8.47961L10.0636 9.61962L9.46961 10.6932C9.14841 11.2828 9.57081 12 10.2396 12H15.5196V11.12H10.2396L10.7236 10.24H14.0016C14.3316 10.24 14.622 10.0596 14.7716 9.78682L16.3468 6.93122C16.5096 6.64082 16.2984 6.28002 15.964 6.28002H9.45201L9.03841 5.40002H7.59961ZM10.2405 12.44C9.75654 12.44 9.36494 12.836 9.36494 13.32C9.36494 13.804 9.75654 14.2 10.2405 14.2C10.7245 14.2 11.1205 13.804 11.1205 13.32C11.1205 12.836 10.7245 12.44 10.2405 12.44ZM13.7649 13.32C13.7649 12.836 14.1565 12.44 14.6405 12.44C15.1245 12.44 15.5205 12.836 15.5205 13.32C15.5205 13.804 15.1245 14.2 14.6405 14.2C14.1565 14.2 13.7649 13.804 13.7649 13.32Z" fill="white"/>
</svg>
