<svg width="24" height="24" viewBox="0 0 24 24" fill="none" xmlns="http://www.w3.org/2000/svg">
<path d="M21.5 5H2C1.86739 5 1.74021 5.05268 1.64645 5.14645C1.55268 5.24021 1.5 5.36739 1.5 5.5V18C1.5 18.1326 1.55268 18.2598 1.64645 18.3536C1.74021 18.4473 1.86739 18.5 2 18.5H21.5C21.6326 18.5 21.7598 18.4473 21.8536 18.3536C21.9473 18.2598 22 18.1326 22 18V5.5C22 5.36739 21.9473 5.24021 21.8536 5.14645C21.7598 5.05268 21.6326 5 21.5 5ZM21 7.5H12.5V6H21V7.5ZM21 13.5V15H2.5V13.5H21ZM12.5 12.5V11H21V12.5H12.5ZM12.5 10V8.5H21V10H12.5ZM2.5 6H11.5V12.5H2.5V6ZM2.5 17.5V16H21V17.5H2.5Z" fill="#311C1C"/>
</svg>
